<?xml version="1.0" encoding="utf-8"?>
<!-- Generator: Adobe Illustrator 16.0.0, SVG Export Plug-In . SVG Version: 6.00 Build 0)  -->
<!DOCTYPE svg PUBLIC "-//W3C//DTD SVG 1.1//EN" "http://www.w3.org/Graphics/SVG/1.1/DTD/svg11.dtd">
<svg version="1.1" id="Layer_1" xmlns="http://www.w3.org/2000/svg" xmlns:xlink="http://www.w3.org/1999/xlink" x="0px" y="0px"
	 width="40px" height="25px" viewBox="30 37.5 40 25" enable-background="new 30 37.5 40 25" xml:space="preserve">
<g id="Captions">
</g>
<g id="Your_Icon">
	<g>
		<polygon fill="#BD454A" points="42.217,37.919 47.123,37.919 61.839,50.026 47.123,62.338 42.217,62.338 56.934,49.925 		"/>
		<path fill="#BD454A" d="M47.188,62.338h-5.34l14.867-12.54L41.839,37.662h5.348l0.045,0.038l14.826,12.197l-0.109,0.091
			L47.188,62.338z M42.587,62.08h4.471L61.62,49.898L47.059,37.919h-4.463l14.557,11.876L42.587,62.08z"/>
	</g>
	<g>
		<polygon fill="#BD454A" points="42.095,41.657 51.767,49.796 41.817,57.934 41.817,53.865 47.045,49.796 42.178,45.727 		"/>
		<path fill="#BD454A" d="M41.817,58.246v-4.434l5.083-4.019l-4.836-4.013l-0.133-4.444l10.132,8.46L41.817,58.246z M42.127,53.922
			v3.705l9.498-7.831l-9.365-7.819l0.111,3.695l4.974,4.126L42.127,53.922z"/>
	</g>
</g>
</svg>
