<?xml version="1.0" encoding="utf-8"?>
<!-- Generator: Adobe Illustrator 16.0.0, SVG Export Plug-In . SVG Version: 6.00 Build 0)  -->
<!DOCTYPE svg PUBLIC "-//W3C//DTD SVG 1.1//EN" "http://www.w3.org/Graphics/SVG/1.1/DTD/svg11.dtd">
<svg version="1.1" id="Layer_1" xmlns="http://www.w3.org/2000/svg" xmlns:xlink="http://www.w3.org/1999/xlink" x="0px" y="0px"
	 width="400px" height="400px" viewBox="0 0 400 400" enable-background="new 0 0 400 400" xml:space="preserve">
<g>
	<path opacity="0.1" fill="#231F20" d="M148.75,352.65c-3.362,3.361-7.589,4.582-9.441,2.73l0,0
		c-1.854-1.854-0.632-6.081,2.729-9.442l125.083-125.08c3.358-3.361,7.584-4.584,9.441-2.73l0,0c1.854,1.853,0.631,6.081-2.73,9.441
		L148.75,352.65z"/>
	<path opacity="0.1" fill="#231F20" d="M143.397,328.73c-3.361,3.361-7.589,4.583-9.441,2.731l0,0
		c-1.854-1.854-0.632-6.081,2.729-9.442l200.663-200.661c3.36-3.361,7.585-4.583,9.442-2.73l0,0
		c1.854,1.853,0.631,6.082-2.732,9.441L143.397,328.73z"/>
	<path opacity="0.1" fill="#231F20" d="M159.508,283.348c-3.361,3.361-7.589,4.582-9.441,2.73l0,0
		c-1.853-1.853-0.632-6.08,2.729-9.441l121.824-121.824c3.361-3.36,7.587-4.582,9.441-2.73l0,0c1.856,1.854,0.631,6.081-2.729,9.442
		L159.508,283.348z"/>
	<path opacity="0.1" fill="#231F20" d="M131.67,281.913c-3.362,3.362-7.588,4.582-9.44,2.731l0,0
		c-1.853-1.854-0.632-6.08,2.73-9.441l163.777-163.779c3.361-3.36,7.587-4.582,9.441-2.73l0,0c1.854,1.853,0.631,6.082-2.731,9.441
		L131.67,281.913z"/>
	<path opacity="0.1" fill="#231F20" d="M255.592,362.894c-3.361,3.361-7.59,4.583-9.441,2.73l0,0
		c-1.854-1.854-0.633-6.081,2.729-9.443l85.745-85.741c3.361-3.362,7.587-4.584,9.444-2.731l0,0
		c1.852,1.854,0.631,6.082-2.734,9.441L255.592,362.894z"/>
	<path opacity="0.1" fill="#231F20" d="M197.809,391.405c-3.361,3.361-7.59,4.582-9.442,2.729l0,0
		c-1.853-1.854-0.632-6.08,2.73-9.441l186.101-186.101c3.362-3.358,7.587-4.582,9.441-2.729l0,0c1.854,1.853,0.631,6.081-2.73,9.442
		L197.809,391.405z"/>
	<path opacity="0.1" fill="#231F20" d="M22.802,216.397c-3.362,3.361-7.59,4.582-9.442,2.73l0,0
		c-1.853-1.854-0.631-6.079,2.73-9.441L202.19,23.585c3.362-3.359,7.587-4.583,9.441-2.729l0,0c1.854,1.853,0.631,6.082-2.73,9.443
		L22.802,216.397z"/>
	<path opacity="0.1" fill="#231F20" d="M222.751,337.189c-3.361,3.362-7.59,4.584-9.441,2.731l0,0
		c-1.854-1.854-0.634-6.081,2.728-9.443l118.301-118.294c3.361-3.362,7.587-4.584,9.441-2.73l0,0c1.854,1.853,0.631,6.081-2.73,9.44
		L222.751,337.189z"/>
	<path opacity="0.1" fill="#231F20" d="M178.833,351.838c-3.362,3.361-7.588,4.584-9.441,2.73l0,0
		c-1.853-1.853-0.631-6.079,2.73-9.441l181.558-181.558c3.362-3.36,7.587-4.582,9.441-2.73l0,0c1.854,1.854,0.631,6.082-2.73,9.441
		L178.833,351.838z"/>
	<path opacity="0.1" fill="#231F20" d="M31.665,235.565c-3.362,3.361-7.589,4.582-9.441,2.729l0,0
		c-1.854-1.854-0.632-6.08,2.729-9.441l128.335-128.338c3.363-3.359,7.588-4.581,9.443-2.729l0,0
		c1.854,1.854,0.631,6.082-2.731,9.442L31.665,235.565z"/>
	<path opacity="0.1" fill="#231F20" d="M132.549,76.138c-3.361,3.361-7.588,4.584-9.44,2.73l0,0
		c-1.854-1.854-0.633-6.081,2.729-9.443l29.958-29.958c3.361-3.361,7.587-4.583,9.443-2.729l0,0
		c1.853,1.852,0.631,6.081-2.732,9.441L132.549,76.138z"/>
	<path opacity="0.1" fill="#231F20" d="M182.028,82.461c-3.362,3.361-7.588,4.584-9.441,2.73l0,0
		c-1.854-1.854-0.633-6.081,2.729-9.443l45.739-45.739c3.361-3.361,7.586-4.583,9.442-2.729l0,0
		c1.853,1.852,0.631,6.081-2.732,9.441L182.028,82.461z"/>
	<path opacity="0.1" fill="#231F20" d="M288.748,212.86c-3.361,3.362-7.587,4.582-9.439,2.73l0,0
		c-1.854-1.854-0.633-6.082,2.729-9.444l45.738-45.737c3.361-3.361,7.587-4.583,9.443-2.729l0,0
		c1.853,1.852,0.631,6.081-2.732,9.441L288.748,212.86z"/>
	<path opacity="0.1" fill="#231F20" d="M35.211,173.476c-3.362,3.362-7.588,4.584-9.44,2.731l0,0
		c-1.854-1.854-0.633-6.082,2.729-9.443l29.958-29.958c3.362-3.361,7.587-4.583,9.443-2.729l0,0
		c1.853,1.852,0.631,6.082-2.732,9.441L35.211,173.476z"/>
	<path opacity="0.1" fill="#231F20" d="M111.492,332.165c-3.362,3.361-7.589,4.585-9.441,2.73l0,0
		c-1.854-1.854-0.633-6.079,2.729-9.441l13.182-13.182c3.361-3.362,7.587-4.582,9.443-2.729l0,0
		c1.853,1.853,0.631,6.081-2.732,9.441L111.492,332.165z"/>
	<path opacity="0.1" fill="#231F20" d="M332.141,81.057c-3.361,3.362-7.588,4.585-9.439,2.731l0,0
		c-1.854-1.854-0.634-6.08,2.728-9.441l4.56-4.56c3.361-3.361,7.587-4.582,9.441-2.729l0,0c1.854,1.853,0.631,6.081-2.73,9.441
		L332.141,81.057z"/>
	<path opacity="0.1" fill="#231F20" d="M29.48,149.936c-3.361,3.362-7.588,4.583-9.44,2.731l0,0
		c-1.854-1.854-0.633-6.082,2.729-9.443L157.398,8.595c3.361-3.361,7.587-4.583,9.443-2.729l0,0c1.853,1.852,0.631,6.081-2.732,9.44
		L29.48,149.936z"/>
	<path opacity="0.1" fill="#231F20" d="M65.29,319.024c-3.362,3.361-7.588,4.582-9.44,2.73l0,0
		c-1.854-1.854-0.633-6.081,2.728-9.443L316.446,54.445c3.361-3.361,7.587-4.583,9.441-2.729l0,0
		c1.854,1.853,0.631,6.081-2.731,9.441L65.29,319.024z"/>
	<path opacity="0.1" fill="#231F20" d="M114.275,240.769c-3.362,3.362-7.59,4.582-9.442,2.729l0,0
		c-1.853-1.853-0.631-6.08,2.73-9.441L306.98,34.637c3.363-3.36,7.589-4.582,9.443-2.73l0,0c1.854,1.854,0.629,6.082-2.73,9.443
		L114.275,240.769z"/>
	<path opacity="0.1" fill="#231F20" d="M48.181,277.593c-3.362,3.361-7.589,4.582-9.441,2.73l0,0
		c-1.854-1.854-0.633-6.081,2.729-9.442L272.315,40.034c3.362-3.361,7.587-4.583,9.441-2.729l0,0
		c1.854,1.852,0.631,6.081-2.73,9.441L48.181,277.593z"/>
	<path opacity="0.1" fill="#231F20" d="M83.074,213.425c-3.362,3.361-7.588,4.582-9.44,2.73l0,0c-1.853-1.853-0.632-6.08,2.73-9.441
		L243.892,39.185c3.363-3.36,7.588-4.582,9.441-2.73l0,0c1.855,1.854,0.631,6.082-2.731,9.441L83.074,213.425z"/>
</g>
</svg>
