<?xml version="1.0" encoding="utf-8"?>
<!-- Generator: Adobe Illustrator 16.0.0, SVG Export Plug-In . SVG Version: 6.00 Build 0)  -->
<!DOCTYPE svg PUBLIC "-//W3C//DTD SVG 1.1//EN" "http://www.w3.org/Graphics/SVG/1.1/DTD/svg11.dtd">
<svg version="1.1" id="Layer_1" xmlns="http://www.w3.org/2000/svg" xmlns:xlink="http://www.w3.org/1999/xlink" x="0px" y="0px"
	 width="248.648px" height="225.62px" viewBox="0 0 248.648 225.62" enable-background="new 0 0 248.648 225.62"
	 xml:space="preserve">
<g opacity="0.2">
	<linearGradient id="SVGID_1_" gradientUnits="userSpaceOnUse" x1="124.3247" y1="53.1899" x2="124.3247" y2="7.7878">
		<stop  offset="0" style="stop-color:#FFFFFF"/>
		<stop  offset="0.1901" style="stop-color:#F8F8F8"/>
		<stop  offset="0.4688" style="stop-color:#E4E4E4"/>
		<stop  offset="0.8006" style="stop-color:#C4C4C4"/>
		<stop  offset="1" style="stop-color:#ADADAD"/>
	</linearGradient>
	<path fill="url(#SVGID_1_)" d="M127.673,3.115l116.314,56.467l4.661,0L127.803,0.916c-2.528-1.227-6.654-1.22-9.169,0.015L0,59.566
		l4.661,0L118.848,3.129C121.268,1.94,125.239,1.934,127.673,3.115z"/>
</g>
<polygon opacity="0.2" fill="#1FDEE6" points="248.648,116.257 241.529,109.138 241.529,103.591 248.639,110.7 "/>
<polygon opacity="0.2" fill="#E54F05" points="248.648,126.952 241.529,119.833 241.529,114.286 248.639,121.396 "/>
<polygon opacity="0.2" fill="#1FDEE6" points="248.648,138.21 241.529,131.093 241.529,125.544 248.639,132.655 "/>
<polygon opacity="0.2" fill="#E54F05" points="248.648,148.907 241.529,141.788 241.529,136.239 248.639,143.351 "/>
<polygon opacity="0.2" fill="#1FDEE6" points="248.648,73.358 241.529,66.239 244.801,63.964 248.639,67.803 "/>
<polygon opacity="0.2" fill="#E54F05" points="248.648,84.054 241.529,76.935 241.529,71.388 248.639,78.499 "/>
<polygon opacity="0.2" fill="#1FDEE6" points="248.648,95.313 241.529,88.194 241.529,82.647 248.639,89.758 "/>
<polygon opacity="0.2" fill="#E54F05" points="248.648,106.009 241.529,98.892 241.529,93.344 248.639,100.454 "/>
<polygon opacity="0.2" fill="#1FDEE6" points="248.648,160.165 241.529,153.046 241.529,147.499 248.639,154.61 "/>
<polygon opacity="0.2" fill="#E54F05" points="248.648,170.862 241.529,163.743 241.529,158.194 248.639,165.306 "/>
<polygon opacity="0.2" fill="#1FDEE6" points="248.648,182.12 241.529,175.001 241.529,169.454 248.639,176.563 "/>
<polygon opacity="0.2" fill="#E54F05" points="248.648,192.817 241.529,185.698 241.529,180.149 248.639,187.261 "/>
<polygon opacity="0.2" fill="#1FDEE6" points="248.648,203.513 241.529,196.394 241.529,190.845 248.639,197.956 "/>
<polygon opacity="0.2" fill="#E54F05" points="248.648,214.208 241.529,207.089 241.529,201.542 248.639,208.651 "/>
<polygon opacity="0.2" fill="#1FDEE6" points="248.648,225.468 241.529,218.347 241.529,212.8 248.639,219.911 "/>
<polygon opacity="0.2" fill="#1FDEE6" points="146.598,225.62 139.479,218.501 133.932,218.501 141.041,225.612 "/>
<polygon opacity="0.2" fill="#E54F05" points="157.293,225.62 150.175,218.501 144.627,218.501 151.737,225.612 "/>
<polygon opacity="0.2" fill="#1FDEE6" points="168.552,225.62 161.434,218.501 155.887,218.501 162.996,225.612 "/>
<polygon opacity="0.2" fill="#E54F05" points="179.249,225.62 172.13,218.501 166.582,218.501 173.692,225.612 "/>
<polygon opacity="0.2" fill="#1FDEE6" points="190.508,225.62 183.389,218.501 177.841,218.501 184.951,225.612 "/>
<polygon opacity="0.2" fill="#E54F05" points="201.203,225.62 194.085,218.501 188.537,218.501 195.646,225.612 "/>
<polygon opacity="0.2" fill="#1FDEE6" points="212.462,225.62 205.343,218.501 199.796,218.501 206.905,225.612 "/>
<polygon opacity="0.2" fill="#E54F05" points="223.158,225.62 216.039,218.501 210.491,218.501 217.602,225.612 "/>
<polygon opacity="0.2" fill="#1FDEE6" points="233.854,225.62 226.734,218.501 221.188,218.501 228.297,225.612 "/>
<polygon opacity="0.2" fill="#E54F05" points="244.55,225.62 237.43,218.501 231.884,218.501 238.994,225.612 "/>
<polygon opacity="0.2" fill="#1FDEE6" points="37.8,225.62 30.681,218.501 25.133,218.501 32.243,225.612 "/>
<polygon opacity="0.2" fill="#E54F05" points="48.495,225.62 41.377,218.501 35.829,218.501 42.938,225.612 "/>
<polygon opacity="0.2" fill="#1FDEE6" points="59.754,225.62 52.636,218.501 47.088,218.501 54.197,225.612 "/>
<polygon opacity="0.2" fill="#E54F05" points="70.45,225.62 63.332,218.501 57.783,218.501 64.894,225.612 "/>
<polygon opacity="0.2" fill="#E54F05" points="-0.614,220.134 4.871,225.62 -0.685,225.612 "/>
<polygon opacity="0.2" fill="#1FDEE6" points="16.13,225.62 9.012,218.501 3.464,218.501 10.573,225.612 "/>
<polygon opacity="0.2" fill="#E54F05" points="26.826,225.62 19.707,218.501 14.16,218.501 21.27,225.612 "/>
<polygon opacity="0.2" fill="#1FDEE6" points="81.709,225.62 74.59,218.501 69.043,218.501 76.153,225.612 "/>
<polygon opacity="0.2" fill="#E54F05" points="92.405,225.62 85.286,218.501 79.738,218.501 86.849,225.612 "/>
<polygon opacity="0.2" fill="#1FDEE6" points="103.664,225.62 96.544,218.501 90.997,218.501 98.107,225.612 "/>
<polygon opacity="0.2" fill="#E54F05" points="114.359,225.62 107.241,218.501 101.693,218.501 108.803,225.612 "/>
<polygon opacity="0.2" fill="#1FDEE6" points="125.056,225.62 117.937,218.501 112.389,218.501 119.499,225.612 "/>
<polygon opacity="0.2" fill="#E54F05" points="135.752,225.62 128.633,218.501 123.085,218.501 130.195,225.612 "/>
<polygon opacity="0.2" fill="#1FDEE6" points="0,76.114 7.119,83.233 7.119,88.781 0.009,81.67 "/>
<polygon opacity="0.2" fill="#E54F05" points="0,65.418 7.119,72.538 7.119,78.085 0.009,70.975 "/>
<polygon opacity="0.2" fill="#1FDEE6" points="0,184.913 7.119,192.03 7.119,197.579 0.009,190.47 "/>
<polygon opacity="0.2" fill="#E54F05" points="0,174.218 7.119,181.335 7.119,186.884 0.009,179.774 "/>
<polygon opacity="0.2" fill="#1FDEE6" points="0,162.958 7.119,170.077 7.119,175.624 0.009,168.515 "/>
<polygon opacity="0.2" fill="#E54F05" points="0,152.263 7.119,159.38 7.119,164.929 0.009,157.817 "/>
<polygon opacity="0.2" fill="#E54F05" points="0,195.886 7.119,203.005 7.119,208.552 0.009,201.442 "/>
<polygon opacity="0.2" fill="#1FDEE6" points="0,141.003 7.119,148.122 7.119,153.669 0.009,146.56 "/>
<polygon opacity="0.2" fill="#E54F05" points="0,130.308 7.119,137.427 7.119,142.974 0.009,135.864 "/>
<polygon opacity="0.2" fill="#1FDEE6" points="0,119.048 7.119,126.167 7.119,131.716 0.009,124.604 "/>
<polygon opacity="0.2" fill="#E54F05" points="0,108.353 7.119,115.472 7.119,121.019 0.009,113.909 "/>
<polygon opacity="0.2" fill="#1FDEE6" points="0,97.657 7.119,104.776 7.119,110.323 0.009,103.214 "/>
<polygon opacity="0.2" fill="#E54F05" points="0,86.96 7.119,94.08 7.119,99.628 0.009,92.517 "/>
<g opacity="0.2">
	<polygon fill="#1FDEE6" points="7.119,213.7 0,206.583 0.009,212.138 3.295,215.425 7.119,215.425 	"/>
</g>
</svg>
