<?xml version="1.0" encoding="utf-8"?>
<!-- Generator: Adobe Illustrator 16.0.0, SVG Export Plug-In . SVG Version: 6.00 Build 0)  -->
<!DOCTYPE svg PUBLIC "-//W3C//DTD SVG 1.1//EN" "http://www.w3.org/Graphics/SVG/1.1/DTD/svg11.dtd">
<svg version="1.1" id="Layer_1" xmlns="http://www.w3.org/2000/svg" xmlns:xlink="http://www.w3.org/1999/xlink" x="0px" y="0px"
	 width="134.365px" height="100px" viewBox="-16.183 0 134.365 100" enable-background="new -16.183 0 134.365 100"
	 xml:space="preserve">
<path d="M24.239,97.962c-1.351,0-2.699-0.345-3.916-1.034c-2.489-1.409-4.028-4.049-4.028-6.911V8.99
	c0-2.863,1.539-5.504,4.028-6.913c2.49-1.41,5.547-1.369,8,0.099l67.522,40.515c2.398,1.435,3.859,4.022,3.859,6.812
	c0,2.788-1.461,5.375-3.854,6.812L28.326,96.826C27.068,97.583,25.654,97.962,24.239,97.962z M32.183,23.019v52.967l44.139-26.484
	L32.183,23.019z"/>
<g id="pause" display="none">
	<path display="inline" d="M26.59,98.564c-9.569,0-17.354-6.803-17.354-15.165V15.532c0-8.363,7.785-15.167,17.354-15.167
		c5.01,0,9.775,1.895,13.076,5.198c2.759,2.762,4.276,6.303,4.272,9.971v67.866C43.938,91.762,36.156,98.564,26.59,98.564z
		 M26.595,13.22c-1.641,0-3.026,1.062-3.026,2.318v67.868c0,1.251,1.386,2.308,3.026,2.308c1.642,0,3.029-1.057,3.029-2.308V15.538
		C29.624,14.281,28.236,13.22,26.595,13.22z"/>
	<path display="inline" d="M26.59,2.364c-8.474,0-15.354,5.899-15.354,13.167v67.868c0,7.247,6.88,13.165,15.354,13.165
		c8.455,0,15.348-5.911,15.348-13.165V15.532C41.946,8.271,35.051,2.364,26.59,2.364z M31.624,83.406
		c0,2.374-2.258,4.308-5.029,4.308c-2.781,0-5.026-1.934-5.026-4.308V15.538c0-2.384,2.255-4.318,5.026-4.318
		c2.781,0,5.029,1.934,5.029,4.318V83.406z"/>
	<path display="inline" d="M73.404,98.564c-9.562,0-17.343-6.803-17.343-15.165V15.532c0-8.363,7.78-15.167,17.343-15.167
		c4.573,0,8.892,1.542,12.158,4.342c3.355,2.876,5.202,6.721,5.201,10.826v67.867C90.764,91.762,82.977,98.564,73.404,98.564z
		 M73.409,13.22c-1.638,0-3.021,1.062-3.021,2.318v67.868c0,1.251,1.383,2.308,3.021,2.308c1.646,0,3.035-1.057,3.035-2.308V15.538
		C76.444,14.26,75.083,13.22,73.409,13.22z"/>
	<path display="inline" d="M73.404,2.364c-8.453,0-15.343,5.899-15.343,13.167v67.868c0,7.247,6.888,13.165,15.343,13.165
		c8.465,0,15.359-5.911,15.359-13.165V15.532C88.766,8.271,81.874,2.364,73.404,2.364z M78.444,83.406
		c0,2.374-2.258,4.308-5.035,4.308c-2.774,0-5.021-1.934-5.021-4.308V15.538c0-2.384,2.255-4.318,5.021-4.318
		c2.792,0,5.035,1.934,5.035,4.318V83.406z"/>
</g>
<g id="rewind_1_" display="none">
	<path display="inline" d="M-9.953,61.5l45.545,32.729c2.65,1.904,5.353,2.871,8.021,2.871c4.992,0,10.373-3.857,10.373-12.322
		V61.298c0.1,0.062,0.161,0.145,0.25,0.214L99.771,94.24c2.66,1.91,5.362,2.867,8.021,2.867c5.004,0,10.39-3.852,10.39-12.31V15.522
		c0-8.471-5.391-12.32-10.39-12.32c-2.657,0-5.36,0.957-8.026,2.873L54.241,38.808c-0.089,0.061-0.16,0.139-0.227,0.207V15.522
		c0-8.453-5.405-12.32-10.398-12.32c-2.661,0-5.353,0.957-8.024,2.873L-9.926,38.808c-3.973,2.838-6.257,6.987-6.257,11.358
		C-16.183,54.542-13.91,58.648-9.953,61.5z M60.934,48.111l45.525-32.717c0.088-0.06,0.17-0.108,0.243-0.154
		c0,0.086,0,0.173,0,0.271v69.27c0,0.109,0,0.194,0,0.271c-0.088-0.043-0.161-0.101-0.244-0.158L60.913,52.176
		c-0.91-0.668-1.458-1.412-1.458-2.033C59.455,49.521,60.021,48.778,60.934,48.111z M-3.256,48.106l45.528-32.723
		c0.082-0.058,0.168-0.112,0.237-0.165c0,0.096,0,0.183,0,0.285v69.271c0,0.093,0,0.188,0,0.275
		c-0.081-0.057-0.16-0.115-0.237-0.161L-3.279,52.16c-0.902-0.661-1.456-1.408-1.456-2.035C-4.735,49.507-4.166,48.767-3.256,48.106
		z"/>
</g>
</svg>
