<?xml version="1.0" encoding="utf-8"?>
<!-- Generator: Adobe Illustrator 16.0.0, SVG Export Plug-In . SVG Version: 6.00 Build 0)  -->
<!DOCTYPE svg PUBLIC "-//W3C//DTD SVG 1.1//EN" "http://www.w3.org/Graphics/SVG/1.1/DTD/svg11.dtd">
<svg version="1.1" id="Layer_1" xmlns="http://www.w3.org/2000/svg" xmlns:xlink="http://www.w3.org/1999/xlink" x="0px" y="0px"
	 width="50.5px" height="47.007px" viewBox="0 0 50.5 47.007" enable-background="new 0 0 50.5 47.007" xml:space="preserve">
<path fill="#FFFFFF" d="M25.25,0.233c-13.807,0-25,11.192-25,25c0,9.175,4.948,17.193,12.318,21.542V43.35h9.122v-1.532v-0.383
	V25.523h3.628c0.118,2.251,0.568,10.342,1.168,15.319c0.002,0.013,0.163,1.359,0.445,2.508h11.633v3.038
	C45.583,41.96,50.25,34.143,50.25,25.233C50.25,11.425,39.057,0.233,25.25,0.233z M20.016,41.818h-3.593V6.885h3.593V41.818z
	 M25.282,23.849H21.69V6.885h3.592V23.849z M32.224,8.625c2.378,1.604,3.782,4.091,3.782,6.742c0,2.653-1.404,5.14-3.782,6.743
	V8.625z M26.958,6.914C28.201,7,29.435,7.28,30.551,7.729v15.276c-1.116,0.449-2.35,0.729-3.593,0.815V6.914z M28.302,41.818
	c-0.643-4.497-1.14-13.151-1.3-16.158c0.071-0.002,0.149-0.002,0.228-0.002c4.715,0,7.39,0.781,7.514,1.518
	c0.804,4.776,1.247,11.176,1.443,14.643H28.302z"/>
</svg>
