<?xml version="1.0" encoding="utf-8"?>
<!-- Generator: Adobe Illustrator 16.0.0, SVG Export Plug-In . SVG Version: 6.00 Build 0)  -->
<!DOCTYPE svg PUBLIC "-//W3C//DTD SVG 1.1//EN" "http://www.w3.org/Graphics/SVG/1.1/DTD/svg11.dtd">
<svg version="1.1" id="Layer_1" xmlns="http://www.w3.org/2000/svg" xmlns:xlink="http://www.w3.org/1999/xlink" x="0px" y="0px"
	 width="1163.73px" height="372.54px" viewBox="0 0 1163.73 372.54" enable-background="new 0 0 1163.73 372.54"
	 xml:space="preserve">
<g>
	<defs>
		<rect id="SVGID_1_" x="0" width="1163.73" height="372.54"/>
	</defs>
	<clipPath id="SVGID_2_">
		<use xlink:href="#SVGID_1_"  overflow="visible"/>
	</clipPath>
	<path clip-path="url(#SVGID_2_)" fill="#913236" stroke="#913236" stroke-width="0.9169" stroke-miterlimit="10" d="
		M1083.121,55.151c-34.242,0-65.408-14.922-83.297-37.128c-17.751,22.676-49.059,37.128-83.72,37.128
		c-34.24,0-65.128-15.156-83.018-37.362c-0.448,0.578-0.942,1.125-1.406,1.692l0.032-0.182c-0.901,1.172-1.86,2.311-2.831,3.441
		c-18.245,20.011-47.459,32.41-79.932,32.41c-32.286,0-60.343-8.622-78.511-28.831l0,0c-1.921-1.966-3.771-3.979-5.465-6.08
		c-17.748,22.676-49.057,37.127-83.719,37.127c-34.24,0-65.127-15.156-83.017-37.362c-0.753,0.974-1.565,1.908-2.366,2.85
		l2.366-2.85c-17.609,22.912-49.873,35.146-84.814,35.146c-34.241,0-65.408-14.922-83.297-37.128
		c-17.75,22.676-49.058,37.128-83.718,37.128c-34.241,0-65.13-15.156-83.019-37.362c-17.751,22.91-49.057,37.362-84.137,37.362
		c-32.285,0-61.077-13.042-79.246-33.251l-0.033,79.893c17.471,13.044,53.981,17.861,79.279,17.861
		c35.081,0,66.386-11.281,84.137-34.189c17.889,22.205,48.777,34.189,83.019,34.189c34.66,0,65.969-11.281,83.718-33.956
		c4.924,6.112,10.882,11.403,17.605,15.903l0,0c17.471,13.043,41.072,20.271,66.369,20.271c35.081,0,66.386-11.282,84.137-34.19
		c17.89,22.205,48.777,34.19,83.017,34.19c34.662,0,65.971-11.282,83.719-33.957c17.891,22.208,49.059,33.957,83.298,33.957
		c26.975,0,51.296-5.759,69.325-20.446l0.221-1.286c5.796-4.207,10.94-9.09,15.269-14.675c17.89,22.205,48.777,34.189,83.018,34.189
		c34.661,0,65.969-11.281,83.72-33.956c17.889,22.208,49.055,33.956,83.297,33.956c26.974,0,62.58-5.757,80.609-20.445V17.083
		C1146.121,39.995,1118.063,55.151,1083.121,55.151z"/>
	<path clip-path="url(#SVGID_2_)" fill="#BD5A4A" d="M476.275,59.388c-24.944,32.457-68.702,53.929-118.203,53.929
		c-48.507,0-92.659-21.139-118.002-52.596c-25.144,32.123-69.497,52.596-118.599,52.596c-48.507,0-92.265-21.472-117.607-52.929
		c-25.146,32.456-69.495,52.929-119.191,52.929c-45.737,0-86.524-18.476-112.263-47.104l-0.047,113.18
		c24.75,18.478,76.472,25.304,112.31,25.304c49.696,0,94.045-15.982,119.191-48.437c25.342,31.458,69.1,48.437,117.607,48.437
		c49.102,0,93.455-15.982,118.599-48.104c6.976,8.659,15.416,16.153,24.94,22.528l0,0c24.75,18.478,58.185,28.716,94.021,28.716
		c49.697,0,94.045-15.981,119.191-48.436c25.344,31.458,69.099,48.436,117.606,48.436c49.104,0,93.457-15.981,118.6-48.104
		c25.344,31.46,69.497,48.104,118.003,48.104c38.212,0,72.667-8.156,98.207-28.965l0.313-1.82
		c8.211-5.961,15.499-12.879,21.631-20.791c25.343,31.458,69.1,48.437,117.604,48.437c49.104,0,93.454-15.982,118.601-48.104
		c25.343,31.46,69.493,48.104,118.002,48.104c38.212,0,88.653-8.156,114.194-28.965V59.388
		c-24.945,32.457-64.693,53.929-114.194,53.929c-48.509,0-92.659-21.139-118.002-52.596
		c-25.146,32.123-69.497,52.596-118.601,52.596c-48.505,0-92.262-21.472-117.604-52.929c-0.636,0.817-1.335,1.595-1.992,2.398
		l0.044-0.258c-1.276,1.66-2.634,3.273-4.009,4.875c-25.847,28.349-67.232,45.913-113.235,45.913
		c-45.737,0-85.483-12.215-111.221-40.844l0,0c-2.721-2.783-5.341-5.635-7.741-8.613c-25.143,32.124-69.496,52.597-118.6,52.597
		c-48.507,0-92.262-21.471-117.606-52.929"/>
	<path clip-path="url(#SVGID_2_)" fill="#913236" d="M149.216,106.738c-44.667,58.116-123.018,96.561-211.649,96.561
		c-86.854,0-165.91-37.849-211.289-94.176c-45.021,57.519-124.438,94.176-212.356,94.176c-86.855,0-165.206-38.444-210.581-94.771
		c-45.026,58.114-124.435,94.771-213.418,94.771c-81.894,0-154.925-33.08-201.012-84.342l-0.084,202.654
		c44.316,33.086,136.928,45.306,201.096,45.306c88.984,0,168.393-28.616,213.418-86.727
		c45.375,56.327,123.726,86.727,210.581,86.727c87.919,0,167.335-28.616,212.356-86.133c12.491,15.505,27.604,28.925,44.657,40.338
		l0,0c44.316,33.086,104.182,51.418,168.35,51.418c88.985,0,168.393-28.616,213.418-86.728
		c45.379,56.328,123.726,86.728,210.578,86.728c87.923,0,167.339-28.616,212.357-86.133c45.379,56.33,124.438,86.133,211.29,86.133
		c68.42,0,130.116-14.604,175.847-51.861l0.562-3.262c14.703-10.674,27.752-23.06,38.73-37.227
		c45.379,56.327,123.725,86.727,210.576,86.727c87.923,0,167.335-28.616,212.362-86.133
		c45.376,56.332,124.431,86.133,211.286,86.133c68.42,0,158.739-14.604,204.47-51.862V106.738
		c-44.666,58.116-115.833,96.561-204.47,96.561c-86.855,0-165.91-37.849-211.286-94.176
		c-45.027,57.519-124.439,94.176-212.362,94.176c-86.852,0-165.197-38.444-210.576-94.771c-1.138,1.468-2.392,2.855-3.567,4.295
		l0.078-0.461c-2.285,2.972-4.716,5.859-7.18,8.729c-46.278,50.758-120.381,82.208-202.752,82.208
		c-81.894,0-153.062-21.867-199.146-73.129l0,0c-4.874-4.986-9.562-10.094-13.862-15.424
		c-45.018,57.518-124.434,94.174-212.357,94.174c-86.852,0-165.199-38.443-210.578-94.77"/>
</g>
</svg>
