<?xml version="1.0" encoding="utf-8"?>
<!-- Generator: Adobe Illustrator 16.0.0, SVG Export Plug-In . SVG Version: 6.00 Build 0)  -->
<!DOCTYPE svg PUBLIC "-//W3C//DTD SVG 1.1//EN" "http://www.w3.org/Graphics/SVG/1.1/DTD/svg11.dtd">
<svg version="1.1" id="Capa_1" xmlns="http://www.w3.org/2000/svg" xmlns:xlink="http://www.w3.org/1999/xlink" x="0px" y="0px"
	 width="100px" height="100px" viewBox="0 0 100 100" enable-background="new 0 0 100 100" xml:space="preserve">
<circle fill="none" stroke="#000000" stroke-width="5" stroke-miterlimit="10" cx="50" cy="50" r="29"/>
<path d="M55.661,49.999l14.082-14.083c0.541-0.54,0.541-1.416,0-1.955l-3.705-3.705c-0.539-0.54-1.414-0.54-1.954,0L50,44.339
	L35.917,30.256c-0.54-0.54-1.416-0.54-1.956,0l-3.705,3.705c-0.54,0.54-0.54,1.415,0,1.955l14.083,14.083L30.256,64.084
	c-0.541,0.54-0.541,1.415,0,1.954l3.705,3.706c0.54,0.54,1.416,0.54,1.956,0L50,55.661l14.083,14.083c0.54,0.54,1.415,0.54,1.955,0
	l3.705-3.706c0.54-0.539,0.54-1.414,0-1.954L55.661,49.999z"/>
</svg>
