<?xml version="1.0" encoding="utf-8"?>
<!-- Generator: Adobe Illustrator 16.0.0, SVG Export Plug-In . SVG Version: 6.00 Build 0)  -->
<!DOCTYPE svg PUBLIC "-//W3C//DTD SVG 1.1//EN" "http://www.w3.org/Graphics/SVG/1.1/DTD/svg11.dtd">
<svg version="1.1" id="Layer_1" xmlns="http://www.w3.org/2000/svg" xmlns:xlink="http://www.w3.org/1999/xlink" x="0px" y="0px"
	 width="40px" height="25px" viewBox="30 37.5 40 25" enable-background="new 30 37.5 40 25" xml:space="preserve">
<g id="Captions">
</g>
<g id="Your_Icon">
	<g>
		<polygon fill="#BD454A" points="31.02,37.919 40.598,37.919 69.334,50.026 40.598,62.338 31.02,62.338 59.756,49.925 		"/>
		<path fill="#BD454A" d="M40.725,62.338H30.298l29.028-12.54L30.281,37.663h10.442l0.088,0.038l28.95,12.198l-0.213,0.091
			L40.725,62.338z M31.742,62.08h8.73l28.434-12.182L40.474,37.919h-8.714l28.424,11.875L31.742,62.08z"/>
	</g>
	<g>
		<polygon fill="#BD454A" points="30.781,41.657 49.667,49.796 30.239,57.934 30.239,53.865 40.447,49.796 30.944,45.727 		"/>
		<path fill="#BD454A" d="M30.239,58.246v-4.434l9.926-4.019l-9.444-4.013l-0.261-4.444l19.785,8.459L30.239,58.246z M30.844,53.922
			v3.705l18.546-7.831l-18.287-7.819l0.216,3.695l9.712,4.126L30.844,53.922z"/>
	</g>
</g>
</svg>
