<?xml version="1.0" encoding="utf-8"?>
<!-- Generator: Adobe Illustrator 16.0.0, SVG Export Plug-In . SVG Version: 6.00 Build 0)  -->
<!DOCTYPE svg PUBLIC "-//W3C//DTD SVG 1.1//EN" "http://www.w3.org/Graphics/SVG/1.1/DTD/svg11.dtd">
<svg version="1.1" id="Layer_1" xmlns="http://www.w3.org/2000/svg" xmlns:xlink="http://www.w3.org/1999/xlink" x="0px" y="0px"
	 width="100px" height="100px" viewBox="0 0 100 100" enable-background="new 0 0 100 100" xml:space="preserve">
<g id="Captions">
</g>
<g id="Your_Icon">
	<g>
		<path fill="#FFFFFF" d="M95.029,5H33.45C32.208,5,30,6.242,30,7.485v46.399c0-0.843-4.157-1.278-6.623-1.278
			C11.688,52.605,2.48,62.114,2.48,73.8C2.479,85.488,12.053,95,23.74,95C35.429,95,45,85.488,45,73.801V40h38v13.882
			c-3-0.84-4.605-1.276-7.072-1.276c-11.689,0-21.119,9.51-21.119,21.195C54.809,85.488,64.715,95,76.402,95
			C88.092,95,98,85.488,98,73.801V7.485C98,6.242,96.271,5,95.029,5z M93,73.801c0,9.207-7.6,16.697-16.809,16.697
			c-9.205,0-16.752-7.49-16.752-16.697c0-9.205,7.463-16.695,16.67-16.695c2.92,0,5.789,0.777,8.332,2.25
			c0.695,0.405,1.644,0.405,2.342,0.006C87.48,58.957,88,58.213,88,57.41V35.908C88,34.663,86.798,35,85.559,35H42.923
			C41.681,35,40,34.663,40,35.908v37.893c0,9.207-7.153,16.697-16.359,16.697c-9.209,0-16.53-7.49-16.53-16.697
			c0-9.205,7.574-16.695,16.783-16.695c2.918,0,5.844,0.777,8.388,2.25c0.696,0.405,1.226,0.405,1.921,0.006
			C34.899,58.957,35,58.213,35,57.41V10h58V73.801z"/>
		<path fill="#FFFFFF" d="M88,17.248C88,16.007,86.992,15,85.749,15H42.251C41.008,15,40,16.007,40,17.248v10.504
			C40,28.993,41.008,30,42.251,30h43.498C86.992,30,88,28.993,88,27.752V17.248z M45,20h38v5H45V20z"/>
	</g>
</g>
</svg>
