<?xml version="1.0" encoding="utf-8"?>
<!-- Generator: Adobe Illustrator 16.0.0, SVG Export Plug-In . SVG Version: 6.00 Build 0)  -->
<!DOCTYPE svg PUBLIC "-//W3C//DTD SVG 1.1//EN" "http://www.w3.org/Graphics/SVG/1.1/DTD/svg11.dtd">
<svg version="1.1" id="Layer_1" xmlns="http://www.w3.org/2000/svg" xmlns:xlink="http://www.w3.org/1999/xlink" x="0px" y="0px"
	 width="134.365px" height="100px" viewBox="-16.183 0 134.365 100" enable-background="new -16.183 0 134.365 100"
	 xml:space="preserve">
<path display="none" d="M24.239,97.962c-1.351,0-2.699-0.345-3.916-1.034c-2.489-1.409-4.028-4.049-4.028-6.911V8.99
	c0-2.863,1.539-5.504,4.028-6.913c2.49-1.41,5.547-1.369,8,0.099l67.522,40.515c2.398,1.435,3.859,4.022,3.859,6.812
	c0,2.788-1.461,5.375-3.854,6.812L28.326,96.826C27.068,97.583,25.654,97.962,24.239,97.962z M32.183,23.019v52.967l44.139-26.484
	L32.183,23.019z"/>
<g id="pause">
	<path d="M26.839,95.176c-9.467,0-17.168-6.411-17.168-14.291V16.927c0-7.882,7.702-14.293,17.168-14.293
		c4.957,0,9.671,1.786,12.937,4.899c2.729,2.603,4.23,5.94,4.227,9.396v63.956C44.002,88.765,36.303,95.176,26.839,95.176z
		 M26.844,14.748c-1.623,0-2.994,1-2.994,2.186v63.957c0,1.179,1.371,2.175,2.994,2.175c1.624,0,2.997-0.996,2.997-2.175V16.934
		C29.841,15.749,28.468,14.748,26.844,14.748z"/>
	<path d="M26.839,4.519c-8.383,0-15.19,5.56-15.19,12.409v63.958c0,6.829,6.807,12.407,15.19,12.407
		c8.365,0,15.185-5.571,15.185-12.407V16.927C42.032,10.084,35.21,4.519,26.839,4.519z M31.819,80.891
		c0,2.238-2.233,4.059-4.975,4.059c-2.751,0-4.973-1.82-4.973-4.059V16.934c0-2.247,2.231-4.07,4.973-4.07
		c2.751,0,4.975,1.823,4.975,4.07V80.891z"/>
	<path d="M73.154,95.176c-9.46,0-17.157-6.411-17.157-14.291V16.927c0-7.882,7.697-14.293,17.157-14.293
		c4.525,0,8.797,1.453,12.029,4.092c3.319,2.711,5.146,6.334,5.146,10.202v63.957C90.329,88.765,82.625,95.176,73.154,95.176z
		 M73.159,14.748c-1.62,0-2.988,1-2.988,2.186v63.957c0,1.179,1.368,2.175,2.988,2.175c1.628,0,3.003-0.996,3.003-2.175V16.934
		C76.162,15.729,74.815,14.748,73.159,14.748z"/>
	<path d="M73.154,4.519c-8.362,0-15.179,5.56-15.179,12.409v63.958c0,6.829,6.814,12.407,15.179,12.407
		c8.375,0,15.196-5.571,15.196-12.407V16.927C88.353,10.084,81.534,4.519,73.154,4.519z M78.141,80.891
		c0,2.238-2.233,4.059-4.981,4.059c-2.744,0-4.967-1.82-4.967-4.059V16.934c0-2.247,2.231-4.07,4.967-4.07
		c2.763,0,4.981,1.823,4.981,4.07V80.891z"/>
</g>
<g id="rewind_1_" display="none">
	<path display="inline" d="M-9.953,61.5l45.545,32.729c2.65,1.904,5.353,2.871,8.021,2.871c4.992,0,10.373-3.857,10.373-12.322
		V61.298c0.1,0.062,0.161,0.145,0.25,0.214L99.771,94.24c2.66,1.91,5.362,2.867,8.021,2.867c5.004,0,10.39-3.852,10.39-12.31V15.522
		c0-8.471-5.391-12.32-10.39-12.32c-2.657,0-5.36,0.957-8.026,2.873L54.241,38.808c-0.089,0.061-0.16,0.139-0.227,0.207V15.522
		c0-8.453-5.405-12.32-10.398-12.32c-2.661,0-5.353,0.957-8.024,2.873L-9.926,38.808c-3.973,2.838-6.257,6.987-6.257,11.358
		C-16.183,54.542-13.91,58.648-9.953,61.5z M60.934,48.111l45.525-32.717c0.088-0.06,0.17-0.108,0.243-0.154
		c0,0.086,0,0.173,0,0.271v69.27c0,0.109,0,0.194,0,0.271c-0.088-0.043-0.161-0.101-0.244-0.158L60.913,52.176
		c-0.91-0.668-1.458-1.412-1.458-2.033C59.455,49.521,60.021,48.778,60.934,48.111z M-3.256,48.106l45.528-32.723
		c0.082-0.058,0.168-0.112,0.237-0.165c0,0.096,0,0.183,0,0.285v69.271c0,0.093,0,0.188,0,0.275
		c-0.081-0.057-0.16-0.115-0.237-0.161L-3.279,52.16c-0.902-0.661-1.456-1.408-1.456-2.035C-4.735,49.507-4.166,48.767-3.256,48.106
		z"/>
</g>
</svg>
