<?xml version="1.0" encoding="utf-8"?>
<!-- Generator: Adobe Illustrator 16.0.0, SVG Export Plug-In . SVG Version: 6.00 Build 0)  -->
<!DOCTYPE svg PUBLIC "-//W3C//DTD SVG 1.1//EN" "http://www.w3.org/Graphics/SVG/1.1/DTD/svg11.dtd">
<svg version="1.1" id="Layer_1" xmlns="http://www.w3.org/2000/svg" xmlns:xlink="http://www.w3.org/1999/xlink" x="0px" y="0px"
	 width="30px" height="30px" viewBox="0 0 30 30" enable-background="new 0 0 30 30" xml:space="preserve">
<g>
	<path fill="#FFFFFF" d="M10.075,3.687c0.244-0.044,0.523-0.08,0.841-0.106c0.317-0.026,0.606-0.039,0.869-0.039
		c0.294,0,0.574,0.032,0.839,0.096c0.266,0.064,0.5,0.171,0.702,0.317c0.201,0.148,0.364,0.341,0.485,0.579
		c0.122,0.237,0.182,0.526,0.182,0.866c0,0.264-0.043,0.496-0.129,0.699C13.778,6.3,13.672,6.475,13.546,6.62
		c-0.125,0.144-0.253,0.262-0.389,0.351c-0.135,0.09-0.25,0.155-0.346,0.192l1.781,3.198h-0.935l-1.588-2.966h-1.197v2.966h-0.799
		V3.687z M11.809,4.235c-0.084,0-0.171,0-0.261,0c-0.09,0-0.177,0.003-0.26,0.011c-0.084,0.005-0.163,0.012-0.236,0.019
		s-0.133,0.016-0.178,0.029v2.484h0.75c0.443,0,0.809-0.109,1.098-0.327c0.289-0.219,0.433-0.559,0.433-1.021
		c0-0.346-0.119-0.632-0.357-0.857C12.562,4.348,12.231,4.235,11.809,4.235z"/>
	<path fill="#FFFFFF" d="M15.919,3.62h3.958v0.712h-3.159v2.205h2.917V7.25h-2.917v2.398h3.209v0.712h-4.008V3.62z"/>
</g>
<g>
	<path fill="#FFFFFF" d="M10.6,17.437c0.193,0.102,0.409,0.188,0.65,0.255c0.241,0.068,0.482,0.102,0.727,0.102
		c0.212,0,0.411-0.021,0.597-0.062c0.187-0.042,0.348-0.109,0.487-0.201c0.137-0.094,0.247-0.211,0.327-0.353
		c0.08-0.142,0.121-0.309,0.121-0.502c0-0.263-0.089-0.477-0.265-0.645c-0.177-0.167-0.396-0.314-0.66-0.442
		c-0.264-0.128-0.549-0.254-0.857-0.376c-0.308-0.122-0.593-0.266-0.856-0.433c-0.264-0.167-0.483-0.37-0.66-0.611
		c-0.177-0.241-0.265-0.547-0.265-0.919c0-0.263,0.053-0.5,0.159-0.713c0.106-0.211,0.255-0.391,0.448-0.539
		c0.193-0.148,0.425-0.261,0.698-0.342c0.272-0.081,0.576-0.121,0.909-0.121c0.385,0,0.736,0.028,1.051,0.083
		c0.314,0.055,0.564,0.126,0.75,0.217l0.019-0.01v0.02h0.011l-0.011,0.029v1.541h-0.712v-1.03c-0.16-0.039-0.336-0.07-0.529-0.097
		c-0.193-0.025-0.398-0.039-0.616-0.039c-0.212,0-0.404,0.026-0.574,0.078c-0.17,0.052-0.314,0.121-0.433,0.208
		c-0.119,0.086-0.209,0.188-0.274,0.303c-0.064,0.116-0.096,0.238-0.096,0.366c0,0.25,0.088,0.459,0.265,0.626
		s0.396,0.316,0.659,0.448c0.264,0.131,0.548,0.262,0.857,0.39c0.307,0.129,0.594,0.277,0.856,0.448
		c0.265,0.171,0.484,0.374,0.661,0.612c0.177,0.237,0.265,0.534,0.265,0.884c0,0.29-0.053,0.551-0.16,0.781
		c-0.105,0.23-0.256,0.431-0.452,0.597c-0.196,0.167-0.437,0.296-0.722,0.386c-0.287,0.09-0.609,0.135-0.969,0.135
		c-0.244,0-0.475-0.02-0.693-0.058s-0.419-0.087-0.602-0.145c-0.183-0.059-0.347-0.118-0.491-0.183
		c-0.145-0.065-0.258-0.119-0.342-0.165l0.01-0.029v-1.559H10.6V17.437z"/>
	<path fill="#FFFFFF" d="M19.363,11.649h0.76v4.497c0,0.403-0.053,0.754-0.159,1.05c-0.104,0.294-0.253,0.537-0.445,0.728
		c-0.193,0.189-0.427,0.328-0.701,0.417c-0.277,0.092-0.58,0.137-0.915,0.137c-0.794,0-1.391-0.181-1.791-0.541
		c-0.4-0.359-0.601-0.903-0.601-1.637v-4.65h0.8v4.275c0,0.341,0.033,0.628,0.102,0.862c0.066,0.234,0.165,0.423,0.297,0.567
		c0.132,0.146,0.299,0.249,0.501,0.313s0.438,0.096,0.707,0.096c0.521,0,0.893-0.143,1.113-0.429
		c0.222-0.284,0.333-0.756,0.333-1.41V11.649z"/>
</g>
<g>
	<path fill="#FFFFFF" d="M13.705,21.98l0.096-0.915h-0.048l-0.463,0.828l-0.981,1.647h-0.242l-1.03-1.658l-0.442-0.817h-0.048
		l0.115,0.905v4.488h-0.78v-6.741h0.741l1.598,2.561h0.02l1.541-2.561h0.722v6.741h-0.799V21.98z"/>
	<path fill="#FFFFFF" d="M16.111,19.718h3.959v0.712h-3.159v2.205h2.917v0.713h-2.917v2.397h3.207v0.714h-4.007V19.718z"/>
</g>
<line fill="none" stroke="#FFFFFF" stroke-width="0.405" stroke-miterlimit="10" x1="20.342" y1="6.056" x2="24.94" y2="6.056"/>
<line fill="none" stroke="#FFFFFF" stroke-width="0.405" stroke-miterlimit="10" x1="5.06" y1="6.056" x2="9.868" y2="6.056"/>
<line fill="none" stroke="#FFFFFF" stroke-width="0.405" stroke-miterlimit="10" x1="20.342" y1="15.042" x2="24.94" y2="15.042"/>
<line fill="none" stroke="#FFFFFF" stroke-width="0.405" stroke-miterlimit="10" x1="5.06" y1="15.042" x2="9.868" y2="15.042"/>
<line fill="none" stroke="#FFFFFF" stroke-width="0.405" stroke-miterlimit="10" x1="20.342" y1="24.111" x2="24.94" y2="24.111"/>
<line fill="none" stroke="#FFFFFF" stroke-width="0.405" stroke-miterlimit="10" x1="5.06" y1="24.111" x2="9.681" y2="24.111"/>
<g>
	<path fill="#FFFFFF" d="M28.3,1.7v26.6H1.7V1.7H28.3 M30,0H0v30h30V0L30,0z"/>
</g>
</svg>
